<?xml version="1.0" encoding="utf-8"?>
<!-- Generator: Adobe Illustrator 24.3.0, SVG Export Plug-In . SVG Version: 6.00 Build 0)  -->
<svg version="1.1" id="logo" xmlns="http://www.w3.org/2000/svg" xmlns:xlink="http://www.w3.org/1999/xlink" x="0px" y="0px"
	 viewBox="0 0 1649.9 343.3" style="enable-background:new 0 0 1649.9 343.3;" xml:space="preserve">
<style type="text/css">
	.st0{fill:#FFFFFF;}
	.st1{font-family:'ArialMT';}
	.st2{font-size:58.8671px;}
	.st3{fill-rule:evenodd;clip-rule:evenodd;fill:#FFFFFF;}
	.st4{fill-rule:evenodd;clip-rule:evenodd;fill:url(#SVGID_1_);}
	.st5{fill-rule:evenodd;clip-rule:evenodd;fill:url(#SVGID_2_);}
	.st6{fill-rule:evenodd;clip-rule:evenodd;fill:url(#SVGID_3_);}
	.st7{fill-rule:evenodd;clip-rule:evenodd;fill:url(#SVGID_4_);}
	.st8{fill-rule:evenodd;clip-rule:evenodd;fill:url(#SVGID_5_);}
	.st9{fill-rule:evenodd;clip-rule:evenodd;fill:url(#SVGID_6_);}
</style>
<g id="text">
	<text transform="matrix(1 0 0 1 219.3084 330.5787)" class="st0 st1 st2">S</text>
	<text transform="matrix(1 0 0 1 258.5684 330.5787)" class="st0 st1 st2">OLUÇÕES PARA MOVIMENTAÇÃO E ERGONOMIA</text>
</g>
<path id="title" class="st3" d="M1606.2,137.9v-21.1c0-11-0.3-22.3-1.5-33.3c-0.7-6.6-2.1-14.5-5.2-20.5l-0.2-0.3l-0.1-0.4
	c-3.2-9.6-10.5-14.5-20.3-16.7c-15.1-4-40.2-3.7-55.8-3.7h-36.3c-16,0-40.8-0.2-56.3,3.7c-9.9,2.3-17.1,7.5-21.1,17
	c-6.1,14.7-6.8,38.5-6.8,54.1v21.1c0,15.4,0.6,39.8,6.8,54.1c4.1,9.4,11.7,14.4,21.6,16.7c15.1,4,40.2,3.7,55.8,3.7h36.3
	c15.6,0,40.4,0.2,55.6-3.7c9.6-2.2,17.1-7,20.6-16.5l0.1-0.3l0.1-0.3c3.1-6,4.4-13.9,5.1-20.5C1605.8,160.2,1606.2,149,1606.2,137.9
	L1606.2,137.9z M311.2,38.2l-120.1,211c-1.8,3.2-5,5-8.7,5h-13.9c-3.7,0-6.9-1.9-8.7-5.1L41.4,38.9v207c0,5-3.3,8.5-8.4,8.5H8.4
	c-5.1,0-8.4-3.4-8.4-8.5V10c0-5.1,3.2-8.8,8.4-8.8h53.2c3.7,0,6.9,1.9,8.7,5.1L175.6,195L284.4,6.2c1.8-3.2,5-5,8.6-5h50.8
	c5.1,0,7.6,4.1,7.6,8.8v235.8c0,4.7-2.7,8.5-7.6,8.5h-24.2c-5.1,0-8.4-3.4-8.4-8.5L311.2,38.2L311.2,38.2z M412.7,103.3h164
	c5.2,0,8,3.9,8,8.8v24.2c0,4.9-2.8,8.9-8,8.9h-164v67.6h169.7c5,0,8,3.6,8,8.5v24.6c0,4.9-3,8.5-8,8.5H380.5c-5.1,0-8.4-3.4-8.4-8.5
	V70.7c0-4.1,3.4-7.5,7.5-7.5h25.6c4.1,0,7.5,3.4,7.5,7.5V103.3L412.7,103.3z M703.3,63.2h25.2c4.1,0,7.5,3.4,7.5,7.5v175.1
	c0,5-3.3,8.5-8.4,8.5h-23.8c-5,0-8-3.6-8-8.5V70.7C695.8,66.6,699.2,63.2,703.3,63.2L703.3,63.2z M919.1,45.4L863,156.7h111.3
	L919.1,45.4L919.1,45.4z M995.1,197h-153l-24.2,48.9c-2.6,5.2-7.6,8.3-13.4,8.3h-21.8c-5.1,0-7.9-3.2-8.3-7.8
	c-0.1-1,0.1-1.8,0.5-2.7l118.3-237c1.7-3.5,5.1-5.5,8.9-5.5H936c3.9,0,7.2,2,8.9,5.5l118.9,236.5c0.3,0.6,0.5,1.2,0.5,1.9
	c0,0.2,0,0.5,0,0.7c0,4.9-3,8.5-8,8.5h-23.5c-5.8,0-10.8-3.1-13.4-8.3L995.1,197L995.1,197z M1114.3,44.6v57.2h140.2
	c20.8,0,40-5.1,40-29.2c0-23.1-18.5-28-38.5-28L1114.3,44.6L1114.3,44.6z M1299.4,155.6c-3.5-3.9-8.2-6.3-13.1-7.7
	c-7.4-2.1-15.7-2.7-23.4-2.7h-148.5v100.6c0,5-3.3,8.5-8.4,8.5h-24.2c-5.1,0-8.4-3.4-8.4-8.5V10c0-5.1,3.2-8.8,8.4-8.8h167.9
	c47.8,0,85.6,17.2,85.6,69.9c0,10-1.1,20.4-4.4,29.9c-2,5.6-4.9,10.8-8.9,15c7.7,5.2,13.3,12.8,17.4,21.3c2.7,5.8,4.3,12.1,5.2,18.4
	c1,7,1.4,14,1.4,21v69.1c0,4.7-2.7,8.5-7.7,8.5h-25.7c-5.1,0-8.4-3.4-8.4-8.5c0-10.1,0.6-20.5,1.2-30.7c0.4-5.6,0.8-11.2,1.1-16.8
	c0.2-3.5,0.4-7,0.4-10.5c0-6.6-0.4-13.7-2.1-20C1303.5,163.6,1301.9,159.2,1299.4,155.6L1299.4,155.6z M1599.1,245.2v0.4l-3.5,1.1
	c-9.3,2.9-19.6,4.5-29.3,5.6c-14.2,1.6-28.7,2-42.9,2h-36.7c-23.3,0-60.6-1-81.8-11.2c-19.2-8.6-30.7-24.3-36.4-44.3
	c-2.8-10-3.8-21.8-4.5-32.1c-1.1-16.6-1.3-33.3-1.3-49.9c0-14.2,0.5-28.7,2.1-42.8c1.2-10.4,3.4-21.5,7.8-31.2
	c4-8.1,9.3-15.3,16.1-21.3c7.1-6.3,15.6-10.8,24.6-13.9l0.8-0.3h0.4c20.5-6.8,51.1-7.3,72.3-7.3h36.7c24.4,0,59,1.3,81.5,11.6
	c8.8,4,16.3,9.7,22.4,17.1c6.6,8.1,10.9,17.6,13.7,27.9c2.1,10.1,3.1,21.1,3.9,31.4c1.3,16.5,1.5,33.3,1.5,49.9
	c0,14.1-0.5,28.5-2.3,42.5c-1.3,10.5-3.6,21.6-8,31.5c-4,8.2-9.5,15.3-16.3,21.3C1613.7,238.6,1606.7,242.5,1599.1,245.2z"/>
<g id="edit">
	<linearGradient id="SVGID_1_" gradientUnits="userSpaceOnUse" x1="440.0912" y1="22.0003" x2="466.1625" y2="21.9997">
		<stop  offset="0" style="stop-color:#839FC5"/>
		<stop  offset="1" style="stop-color:#839FC5"/>
	</linearGradient>
	<path class="st4" d="M454.3,43L454.3,43h-23.5c-3.8,0-5.2-2.9-3.4-6.7l13-26.4c2.5-5.1,7.5-8.8,12.7-8.8h21.8
		c5.2,0,6.1,3.9,3.7,8.8L466.7,34C464.2,39,459.4,43,454.3,43"/>
	<linearGradient id="SVGID_2_" gradientUnits="userSpaceOnUse" x1="484.5715" y1="22.0005" x2="519.3286" y2="21.9996">
		<stop  offset="0" style="stop-color:#839FC5"/>
		<stop  offset="1" style="stop-color:#839FC5"/>
	</linearGradient>
	<path class="st5" d="M509.8,43v-0.1c5.2,0,10-3.9,12.4-8.8l11.9-24.2c2.4-4.9,1.5-8.8-3.7-8.8h-33.7c-5.2,0-10.2,3.7-12.7,8.8
		l-13,26.4c-1.8,3.8-0.4,6.7,3.4,6.7H509.8"/>
	
		<linearGradient id="SVGID_3_" gradientUnits="userSpaceOnUse" x1="541.751" y1="533.9414" x2="587.7773" y2="533.9402" gradientTransform="matrix(1 0 0 1 0 -511.9408)">
		<stop  offset="0" style="stop-color:#839FC5"/>
		<stop  offset="1" style="stop-color:#4678B8"/>
	</linearGradient>
	<path class="st6" d="M577.3,42.8c5.2,0,10-3.9,12.4-8.8l11.9-24.2c2.4-4.9,1.5-8.8-3.7-8.8h-45.6c-5.2,0-10.2,3.7-12.7,8.8
		l-13,26.4c-1.8,3.8-0.4,6.7,3.4,6.7h47.3V42.8z"/>
	<linearGradient id="SVGID_4_" gradientUnits="userSpaceOnUse" x1="613.9233" y1="22.0029" x2="847.1655" y2="21.9971">
		<stop  offset="0" style="stop-color:#396FB5"/>
		<stop  offset="1" style="stop-color:#3069B3"/>
	</linearGradient>
	<path class="st7" d="M839.4,43L839.4,43H597.5c-3.8,0-5.2-2.9-3.4-6.7l13-26.4c2.5-5.1,7.5-8.8,12.7-8.8H860c5.2,0,6.1,4,3.7,8.8
		L851.8,34C849.3,39,844.5,43,839.4,43"/>
	<linearGradient id="SVGID_5_" gradientUnits="userSpaceOnUse" x1="405.8836" y1="22.1002" x2="423.5061" y2="22.0998">
		<stop  offset="0" style="stop-color:#839FC5"/>
		<stop  offset="1" style="stop-color:#839FC5"/>
	</linearGradient>
	<path class="st8" d="M410.6,43.1V43c5.2,0,9.9-3.9,12.4-8.8l11.8-24.2c2.4-4.9,1.5-8.8-3.7-8.8h-9.9c-5.2,0-10.2,3.7-12.7,8.8
		l-13,26.4c-1.9,3.8-0.4,6.7,3.4,6.7H410.6"/>
	<linearGradient id="SVGID_6_" gradientUnits="userSpaceOnUse" x1="383.0301" y1="22.1001" x2="392.7485" y2="22.0999">
		<stop  offset="0" style="stop-color:#839FC5"/>
		<stop  offset="1" style="stop-color:#839FC5"/>
	</linearGradient>
	<path class="st9" d="M378.8,43L378.8,43h-2.5c-3.8,0-5.2-2.9-3.4-6.7l13-26.4c2.5-5.1,7.5-8.8,12.7-8.8h0.8c5.2,0,6.1,3.9,3.7,8.8
		l-11.9,24.2C388.7,39.1,383.9,43,378.8,43"/>
</g>
</svg>
